<svg width="1000" height="1000" viewBox="0 0 1000 1000" fill="none" xmlns="http://www.w3.org/2000/svg">
<rect width="1000" height="1000" fill="black"/>
<path d="M824.254 600.748L685.619 369.206C679.261 358.564 663.596 349.857 650.804 349.857H564.253C544.135 349.857 535.889 336.179 545.922 319.461L593.387 240.396C597.154 234.121 597.145 226.397 593.368 220.128C589.588 213.86 582.609 210 575.057 210H454.315C441.524 210 425.825 218.687 419.426 229.305L184.803 618.579C178.402 629.196 178.399 646.573 184.794 657.194L245.164 757.459C255.223 774.164 271.719 774.183 281.821 757.501L328.992 679.608C339.096 662.925 355.589 662.945 365.649 679.65L408.415 750.677C414.809 761.298 430.506 769.986 443.296 769.986H722.306C735.091 769.986 750.791 761.298 757.185 750.677L824.184 639.408C830.578 628.788 830.609 611.391 824.254 600.748ZM637.025 589.604C647.021 606.343 638.741 620.04 618.623 620.04H401.6C381.483 620.04 373.252 606.371 383.312 589.666L491.907 409.311C501.966 392.606 518.425 392.606 528.484 409.312L637.025 589.604Z" fill="white"/>
</svg>
